<?xml version="1.0" encoding="utf-8"?>
<!-- Generator: Adobe Illustrator 19.0.0, SVG Export Plug-In . SVG Version: 6.00 Build 0)  -->
<svg version="1.1" id="Layer_1" xmlns="http://www.w3.org/2000/svg" xmlns:xlink="http://www.w3.org/1999/xlink" x="0px" y="0px"
	 viewBox="-293 385 24 24" style="enable-background:new -293 385 24 24;" xml:space="preserve">
<style type="text/css">
	.st0{fill:#FFFFFF;}
</style>
<path class="st0" d="M-273.8,389h-3.4v-0.5c0-0.9,0.8-1.7,1.7-1.7s1.7,0.8,1.7,1.7 M-273,389v-0.5c0-1.4-1.1-2.5-2.5-2.5
	s-2.5,1.1-2.5,2.5v0.5c-0.6,0-1,0.4-1,1v4c0,0.6,0.4,1,1,1h5c0.6,0,1-0.4,1-1v-4C-272,389.4-272.4,389-273,389 M-273,400.5
	c-1.3,0-2.5-0.2-3.6-0.6c-0.4-0.1-0.7,0-1,0.3l-2.2,2.2c-2.8-1.4-5.1-3.8-6.6-6.6l2.2-2.2c0.3-0.3,0.4-0.7,0.3-1
	c-0.4-1.1-0.6-2.3-0.6-3.6c0-0.6-0.4-1-1-1h-3.5c-0.6,0-1,0.4-1,1c0,9.4,7.6,17,17,17c0.6,0,1-0.4,1-1v-3.5
	C-272,400.9-272.4,400.5-273,400.5z"/>
</svg>
